<?xml version="1.0" encoding="UTF-8"?>
<!-- Generator: Adobe Illustrator 24.3.0, SVG Export Plug-In . SVG Version: 6.00 Build 0)  -->
<svg version="1.1" id="Calque_1" xmlns="http://www.w3.org/2000/svg" xmlns:xlink="http://www.w3.org/1999/xlink" x="0px" y="0px" viewBox="0 0 335 95.5" style="enable-background:new 0 0 335 95.5;" xml:space="preserve">
<style type="text/css">
	.st0{enable-background:new    ;}
	.st1{fill:#FFFFFF;}
	.st2{fill:url(#Tracé_32788_1_);}
	.st3{fill:url(#Ellipse_381_1_);}
</style>
<g id="Groupe_4829" transform="translate(-139 -152)">
	<g class="st0">
		<path class="st1" d="M238.4,198.7v-11.6c0-11.3,5.6-17.1,16.3-17.1c9.9,0,15.3,4.9,15.8,14.4h-3.6c-0.5-7.3-4.5-10.9-12.2-10.9    c-8.5,0-12.5,4.5-12.5,13.9v11.1c0,9.4,4,13.9,12.5,13.9c7.5,0,11.6-3.5,12.1-10.9h3.6c-0.5,9.4-5.9,14.3-15.7,14.3    C243.9,215.8,238.4,210,238.4,198.7z"/>
		<path class="st1" d="M323.4,215h-3.7v-39l-16.5,39h-2.8l-16.5-39.1V215h-3.6v-44.2h5.3l16.3,38.4l16.3-38.4h5.3V215z"/>
		<path class="st1" d="M363.2,211.6v3.4h-26.9v-44.2h3.7v40.8H363.2z"/>
		<path class="st1" d="M372.6,201.4c0,7.5,3.4,11.2,10.3,11.2c6,0,9.3-2.7,9.8-7.3h3.5c-0.5,6.8-5.3,10.5-13.2,10.5    c-9.1,0-14-4.9-14-14.1V195c0-9.2,4.8-14.1,13.7-14.1s13.8,4.9,13.8,14.1v4.1h-23.9V201.4z M372.6,195.3v0.7h20.3v-0.7    c0-7.5-3.2-11.2-10.1-11.2C375.8,184.1,372.6,187.8,372.6,195.3z"/>
		<path class="st1" d="M404.4,201.4v-6.1c0-9.3,4.9-14.4,14-14.4c9.2,0,14.1,5.1,14.1,14.4v6.1c0,9.3-4.9,14.4-14.1,14.4    C409.4,215.8,404.4,210.7,404.4,201.4z M428.9,201.2v-5.7c0-7.5-3.5-11.4-10.5-11.4c-7,0-10.4,3.9-10.4,11.4v5.7    c0,7.5,3.4,11.4,10.4,11.4C425.4,212.6,428.9,208.7,428.9,201.2z"/>
		<path class="st1" d="M468.1,193v22h-3.6v-21.6c0-6.1-2.3-9.1-7.3-9.1c-4.7,0-8.4,2.6-11,8.6V215h-3.6v-33.3h3.1l0.1,6.4    c2.9-4.9,6.8-7.2,12-7.2C464.6,180.9,468.1,185.1,468.1,193z"/>
	</g>
	<g class="st0">
		<path class="st1" d="M286.9,225.8L284,236h-0.9l-2.6-8.8L278,236h-0.9l-2.9-10.2h0.9l2.5,8.8l2.6-8.8h0.9l2.6,8.8l2.5-8.8H286.9z"/>
		<path class="st1" d="M302,235.2v0.8h-6.7v-10.2h6.5v0.8h-5.7v3.8h4.9v0.8h-4.9v4H302z"/>
		<path class="st1" d="M310.8,225.8h3.9c2.1,0,3.2,0.8,3.2,2.6c0,1.2-0.5,2-1.5,2.3v0c1.3,0.3,1.8,1.1,1.8,2.5c0,1.9-1,2.8-3.2,2.8    h-4.2V225.8z M314.7,230.4c1.5,0,2.2-0.6,2.2-1.9c0-1.3-0.7-1.9-2.3-1.9h-3v3.8H314.7z M314.8,235.2c1.7,0,2.4-0.6,2.4-2    c0-1.4-0.8-2-2.6-2h-3.1v4H314.8z"/>
		<path class="st1" d="M343.2,233.1h-4.7l-1.1,2.9h-0.9l3.9-10.2h0.9l3.9,10.2h-0.9L343.2,233.1z M338.9,232.3h4.1l-2-5.5    L338.9,232.3z"/>
		<path class="st1" d="M360.6,232.4c0,2.5-1.3,3.8-3.7,3.8c-2.5,0-3.9-1.3-3.9-3.9v-2.8c0-2.4,1.4-3.9,3.8-3.9    c2.2,0,3.5,1.2,3.6,3.3h-0.8c-0.1-1.6-1.1-2.5-2.8-2.5c-1.9,0-2.9,1.1-2.9,3.1v2.7c0,2.1,1,3.1,3,3.1c1.9,0,2.9-1,2.9-3v-0.8h-2.5    v-0.8h3.3V232.4z"/>
		<path class="st1" d="M376.5,235.2v0.8h-6.7v-10.2h6.5v0.8h-5.7v3.8h4.9v0.8h-4.9v4H376.5z"/>
		<path class="st1" d="M392.7,225.8V236h-0.8l-5.8-9v9h-0.8v-10.2h1l5.5,8.7v-8.7H392.7z"/>
		<path class="st1" d="M402,232.2v-2.7c0-2.6,1.3-3.9,3.8-3.9c2.3,0,3.5,1.1,3.6,3.3h-0.8c-0.1-1.7-1-2.5-2.8-2.5    c-2,0-2.9,1-2.9,3.2v2.5c0,2.2,0.9,3.2,2.9,3.2c1.7,0,2.7-0.8,2.8-2.5h0.8c-0.1,2.2-1.3,3.3-3.6,3.3    C403.2,236.2,402,234.8,402,232.2z"/>
		<path class="st1" d="M421.2,231.5v4.5h-0.9v-4.5l-3.6-5.7h1l3.1,4.8l3.1-4.8h1L421.2,231.5z"/>
	</g>
	<g id="Groupe_4813" transform="translate(139 159.235)">
		
			<linearGradient id="Tracé_32788_1_" gradientUnits="userSpaceOnUse" x1="-248.8918" y1="334.7086" x2="-247.8918" y2="334.7086" gradientTransform="matrix(81.0769 0 0 -88.2765 20179.3828 29591.0078)">
			<stop offset="0.167" style="stop-color:#01608E"/>
			<stop offset="0.822" style="stop-color:#03D1A0"/>
		</linearGradient>
		<path id="Tracé_32788" class="st2" d="M81.1,43.8c0-2.4,0-4.8-0.2-7.1c-0.5-6.5-2.7-12.7-6.3-18.1C70.9,12.8,65.9,8.2,60,5    C56.4,3,52.6,1.6,48.7,0.8c-3.9-0.7-7.9-1-11.8-0.8C36.2,0,36,0.3,36,1c0,1.9,0,3.8,0,5.7c0,0.6-0.2,0.8-0.8,0.9    c-3.1,0.4-6.1,1.1-9,2.2c-11.7,4.4-20.7,14-24.4,26C-0.5,43.3-0.6,51.4,1.6,59c1.7,6.1,4.9,11.7,9.2,16.3    c4.5,4.9,10.2,8.6,16.6,10.8c4.9,1.8,10.2,2.5,15.4,2c6.8-0.7,11.8-4.4,14.7-10.6c2.5-5.2,2.3-11.3-0.5-16.4    c-2.1-4.1-5.8-7.1-10.1-8.5c-3.1-1.2-6.5-1.1-9.6,0c-4.7,2-7,7.3-5.2,12.1c1.2,3.4,4.6,5.5,8.1,5.3c0.3-0.1,0.7-0.3,0.8-0.6    c0.2-0.5-0.2-0.7-0.7-0.8c-1.3-0.4-2.4-1.1-3.2-2.2c-1.4-1.8-1.6-4.2-0.5-6.2c1.1-1.8,3.3-2.6,5.3-2.1c4.8,0.8,8.4,4.7,8.8,9.6    c0.5,4.5-2,8.8-6.1,10.6c-3.2,1.3-6.7,1.2-9.9-0.1c-7.5-2.6-12.2-10.1-11.2-18c1-8.7,8.3-15.3,17.1-15.3c6.2,0.1,12.5,0,18.7,0v0    h20.5C81,45,81.1,44.9,81.1,43.8z M70.7,36.1c-10.1,0-20.3,0-30.4,0c-6.6,0-13,2.6-17.7,7.2c-6.2,5.9-8.7,13.2-7.9,21.7    c0,0.1,0,0.2,0,0.3c0,0,0,0-0.2,0.3c-1.1-2.1-2.2-4.1-3-6.1c-1.9-4.6-2.7-9.7-2.2-14.7c1.1-10.8,7.5-20.3,17.1-25.2    c4-2.1,8.5-3.3,13-3.4c1.5,0,3.1,0,4.6,0c1,0,1.1-0.1,1.1-1.1c0-1.6,0-3.2,0-4.8c0-1.1,0-1.1,1.1-0.9c7.4,1.3,14.1,5.2,18.8,11.1    c3.5,4.1,5.8,9.1,6.7,14.4C71.8,36,71.7,36,70.7,36.1L70.7,36.1z"/>
		
			<linearGradient id="Ellipse_381_1_" gradientUnits="userSpaceOnUse" x1="-222.1781" y1="289.6349" x2="-221.2208" y2="289.925" gradientTransform="matrix(6.1373 -1.4488 -1.4488 -6.1373 1840.4087 1481.0228)">
			<stop offset="0.167" style="stop-color:#01608E"/>
			<stop offset="0.822" style="stop-color:#03D1A0"/>
		</linearGradient>
		<ellipse id="Ellipse_381" class="st3" cx="59.9" cy="23.8" rx="3.2" ry="3.2"/>
	</g>
</g>
</svg>